<?xml version="1.0" encoding="utf-8"?>
<!-- Generator: Adobe Illustrator 27.3.1, SVG Export Plug-In . SVG Version: 6.00 Build 0)  -->
<svg version="1.1" id="Layer_1" xmlns="http://www.w3.org/2000/svg" xmlns:xlink="http://www.w3.org/1999/xlink" x="0px" y="0px"
	 viewBox="0 0 115 36" style="enable-background:new 0 0 115 36;" xml:space="preserve">
<style type="text/css">
	.st0{fill-rule:evenodd;clip-rule:evenodd;fill:#231F20;}
	.st1{fill-rule:evenodd;clip-rule:evenodd;fill:#C72127;}
	.st2{fill:#231F20;}
	.st3{fill:#C82127;}
	.st4{fill:#221F1F;}
	.st5{fill:#EA1F27;}
</style>
<g>
	<g>
		<path class="st0" d="M13.82,6.15h-0.58L13.1,9.82c-4.18,0.22-7.53,3.57-7.75,7.75l-3.68,0.14v0.58l3.68,0.14
			c0.22,4.18,3.57,7.53,7.75,7.75l0.14,3.68h0.58l0.14-3.68c4.18-0.22,7.53-3.57,7.75-7.75l3.68-0.14v-0.58l-3.68-0.14
			c-0.22-4.18-3.57-7.53-7.75-7.75L13.82,6.15z M13.54,11.79c3.43,0,6.21,2.78,6.21,6.21c0,3.43-2.78,6.21-6.21,6.21
			S7.32,21.43,7.32,18C7.32,14.57,10.11,11.79,13.54,11.79"/>
		<path class="st1" d="M13.54,13.24c2.63,0,4.76,2.13,4.76,4.76c0,2.63-2.13,4.76-4.76,4.76c-2.62,0-4.76-2.13-4.76-4.76
			C8.78,15.38,10.91,13.24,13.54,13.24"/>
	</g>
	<path class="st4" d="M28.48,23h2.31v-8.18h1.5v-1.96h-5.31v1.96h1.5V23L28.48,23z M34.33,20.92V19.3h3.16v-2.04
		c0-0.85-0.22-1.48-0.66-1.9c-0.44-0.42-1.11-0.63-2.01-0.63c-0.9,0-1.57,0.21-2.01,0.63c-0.44,0.42-0.66,1.06-0.66,1.9v3.36
		c0,0.85,0.22,1.48,0.66,1.9c0.44,0.42,1.11,0.63,2.01,0.63c0.9,0,1.57-0.21,2.01-0.63c0.44-0.42,0.66-1.05,0.66-1.9v-0.65H35.3
		v0.95c0,0.23-0.03,0.4-0.1,0.51c-0.07,0.11-0.2,0.16-0.38,0.16c-0.18,0-0.31-0.06-0.38-0.17C34.36,21.31,34.33,21.14,34.33,20.92
		L34.33,20.92z M34.33,16.96c0-0.22,0.03-0.39,0.11-0.5c0.07-0.11,0.2-0.17,0.38-0.17c0.18,0,0.31,0.06,0.38,0.17
		c0.07,0.11,0.11,0.28,0.1,0.5v0.86h-0.97V16.96L34.33,16.96z M41.52,16.96v1h2.19v-0.7c0-0.85-0.22-1.48-0.66-1.9
		c-0.44-0.42-1.11-0.63-2.01-0.63c-0.9,0-1.57,0.21-2.01,0.63c-0.44,0.42-0.66,1.06-0.66,1.9v3.36c0,0.85,0.22,1.48,0.66,1.9
		c0.44,0.42,1.11,0.63,2.01,0.63c0.9,0,1.57-0.21,2.01-0.63c0.44-0.42,0.66-1.05,0.66-1.9v-1.06h-2.19v1.37
		c0,0.23-0.03,0.4-0.1,0.51c-0.07,0.11-0.2,0.16-0.38,0.16c-0.18,0-0.31-0.06-0.38-0.17c-0.07-0.11-0.11-0.28-0.1-0.5v-3.97
		c0-0.22,0.03-0.39,0.11-0.5c0.07-0.11,0.2-0.17,0.38-0.17c0.18,0,0.31,0.06,0.38,0.17C41.48,16.56,41.52,16.73,41.52,16.96
		L41.52,16.96z M44.69,23h2.15v-5.31c0-0.2,0.01-0.37,0.04-0.52c0.03-0.14,0.08-0.25,0.16-0.33c0.08-0.08,0.19-0.12,0.33-0.12
		c0.15,0,0.26,0.05,0.33,0.16c0.07,0.11,0.11,0.26,0.11,0.47V23h2.15v-6.28c0-0.66-0.13-1.15-0.38-1.49
		c-0.25-0.33-0.61-0.5-1.07-0.5c-0.34,0-0.65,0.09-0.92,0.27c-0.27,0.18-0.52,0.46-0.76,0.84v-2.99h-2.15V23L44.69,23z M51.1,12.85
		V23h2.45c0.4,0,0.77-0.01,1.09-0.03c0.33-0.02,0.62-0.07,0.89-0.15c0.27-0.08,0.51-0.2,0.72-0.37c0.22-0.18,0.4-0.38,0.52-0.59
		c0.12-0.22,0.21-0.45,0.26-0.72c0.05-0.26,0.07-0.56,0.07-0.88V15.6c0-0.56-0.06-1.02-0.17-1.38c-0.11-0.36-0.3-0.64-0.54-0.84
		c-0.25-0.2-0.57-0.34-0.97-0.42c-0.4-0.08-0.88-0.12-1.45-0.11H51.1L51.1,12.85z M53.7,14.59c0.19,0,0.36,0.01,0.49,0.03
		c0.14,0.02,0.24,0.06,0.33,0.13c0.08,0.06,0.14,0.16,0.18,0.29c0.04,0.13,0.06,0.3,0.06,0.51v4.78c0,0.21-0.02,0.38-0.06,0.51
		c-0.04,0.13-0.1,0.22-0.18,0.29c-0.08,0.06-0.19,0.11-0.33,0.13c-0.13,0.02-0.3,0.03-0.49,0.03h-0.29v-6.68H53.7L53.7,14.59z
		 M60.2,20.92V19.3h3.16v-2.04c0-0.85-0.22-1.48-0.66-1.9c-0.44-0.42-1.11-0.63-2.01-0.63c-0.9,0-1.57,0.21-2.01,0.63
		c-0.44,0.42-0.66,1.06-0.66,1.9v3.36c0,0.85,0.22,1.48,0.66,1.9c0.44,0.42,1.11,0.63,2.01,0.63c0.9,0,1.57-0.21,2.01-0.63
		c0.44-0.42,0.66-1.05,0.66-1.9v-0.65h-2.19v0.95c0,0.23-0.03,0.4-0.1,0.51c-0.07,0.11-0.2,0.16-0.38,0.16
		c-0.18,0-0.31-0.06-0.38-0.17C60.23,21.31,60.2,21.14,60.2,20.92L60.2,20.92z M60.2,16.96c0-0.22,0.03-0.39,0.11-0.5
		c0.07-0.11,0.2-0.17,0.38-0.17c0.18,0,0.31,0.06,0.38,0.17c0.07,0.11,0.11,0.28,0.1,0.5v0.86H60.2V16.96L60.2,16.96z M64.42,23
		h2.12v-6.45h0.59V15H66.5v-0.11c0-0.21,0.04-0.36,0.12-0.45c0.09-0.08,0.24-0.13,0.45-0.12h0.05v-1.47h-0.85
		c-0.35,0-0.65,0.03-0.89,0.1c-0.24,0.07-0.43,0.19-0.57,0.34c-0.14,0.16-0.24,0.37-0.3,0.62c-0.06,0.26-0.09,0.57-0.09,0.95V15
		h-0.54v1.55h0.54V23L64.42,23z M69.85,20.92V19.3h3.16v-2.04c0-0.85-0.22-1.48-0.66-1.9c-0.44-0.42-1.11-0.63-2.01-0.63
		c-0.9,0-1.57,0.21-2.01,0.63c-0.44,0.42-0.66,1.06-0.66,1.9v3.36c0,0.85,0.22,1.48,0.66,1.9c0.44,0.42,1.11,0.63,2.01,0.63
		c0.9,0,1.57-0.21,2.01-0.63c0.44-0.42,0.66-1.05,0.66-1.9v-0.65h-2.19v0.95c0,0.23-0.03,0.4-0.1,0.51
		c-0.07,0.11-0.2,0.16-0.38,0.16c-0.18,0-0.31-0.06-0.38-0.17C69.88,21.31,69.85,21.14,69.85,20.92L69.85,20.92z M69.85,16.96
		c0-0.22,0.03-0.39,0.11-0.5c0.07-0.11,0.2-0.17,0.38-0.17c0.18,0,0.31,0.06,0.38,0.17c0.07,0.11,0.11,0.28,0.1,0.5v0.86h-0.97
		V16.96L69.85,16.96z M73.99,23h2.15v-5.31c0-0.2,0.01-0.37,0.04-0.52c0.03-0.14,0.08-0.25,0.16-0.33c0.08-0.08,0.19-0.12,0.33-0.12
		c0.15,0,0.26,0.05,0.33,0.16c0.07,0.11,0.11,0.26,0.11,0.47V23h2.15v-6.28c0-0.66-0.13-1.16-0.38-1.49
		c-0.26-0.33-0.65-0.5-1.17-0.5c-0.35,0-0.68,0.1-0.97,0.29c-0.29,0.19-0.54,0.46-0.73,0.83v-0.96h-2.04V23L73.99,23z M83.41,16.96
		v1h2.19v-0.7c0-0.85-0.22-1.48-0.66-1.9c-0.44-0.42-1.11-0.63-2.01-0.63c-0.9,0-1.57,0.21-2.01,0.63c-0.44,0.42-0.66,1.06-0.66,1.9
		v3.36c0,0.85,0.22,1.48,0.66,1.9c0.44,0.42,1.11,0.63,2.01,0.63c0.9,0,1.57-0.21,2.01-0.63c0.44-0.42,0.66-1.05,0.66-1.9v-1.06
		h-2.19v1.37c0,0.23-0.03,0.4-0.1,0.51c-0.07,0.11-0.2,0.16-0.38,0.16c-0.18,0-0.31-0.06-0.38-0.17c-0.07-0.11-0.11-0.28-0.1-0.5
		v-3.97c0-0.22,0.03-0.39,0.11-0.5c0.07-0.11,0.2-0.17,0.38-0.17c0.18,0,0.31,0.06,0.38,0.17C83.38,16.56,83.41,16.73,83.41,16.96
		L83.41,16.96z M88.66,20.92V19.3h3.16v-2.04c0-0.85-0.22-1.48-0.66-1.9c-0.44-0.42-1.11-0.63-2.01-0.63c-0.9,0-1.57,0.21-2.01,0.63
		c-0.44,0.42-0.66,1.06-0.66,1.9v3.36c0,0.85,0.22,1.48,0.66,1.9c0.44,0.42,1.11,0.63,2.01,0.63c0.9,0,1.57-0.21,2.01-0.63
		c0.44-0.42,0.66-1.05,0.66-1.9v-0.65h-2.19v0.95c0,0.23-0.03,0.4-0.1,0.51c-0.07,0.11-0.2,0.16-0.38,0.16
		c-0.18,0-0.31-0.06-0.38-0.17C88.69,21.31,88.66,21.14,88.66,20.92L88.66,20.92z M88.66,16.96c0-0.22,0.03-0.39,0.11-0.5
		c0.07-0.11,0.2-0.17,0.38-0.17c0.18,0,0.31,0.06,0.38,0.17c0.07,0.11,0.11,0.28,0.1,0.5v0.86h-0.97V16.96L88.66,16.96z"/>
	<path class="st5" d="M92.83,23h2.15V12.85h-2.15V23L92.83,23z M99.17,22.42L99.21,23h2.01v-5.87c0-0.54-0.08-0.99-0.25-1.34
		c-0.17-0.36-0.44-0.62-0.82-0.8c-0.38-0.18-0.88-0.26-1.51-0.26c-0.55,0-1.02,0.09-1.41,0.27c-0.38,0.18-0.68,0.43-0.88,0.76
		c-0.2,0.33-0.3,0.73-0.3,1.2v0.51h2.01v-0.51c0-0.26,0.05-0.45,0.15-0.58c0.1-0.14,0.22-0.2,0.38-0.2c0.14,0,0.26,0.05,0.35,0.15
		c0.09,0.1,0.14,0.22,0.14,0.37v0.29c0,0.17-0.04,0.31-0.12,0.43c-0.08,0.12-0.19,0.22-0.33,0.31c-0.14,0.09-0.32,0.18-0.52,0.27
		c-0.2,0.09-0.43,0.19-0.68,0.31c-0.52,0.24-0.9,0.54-1.15,0.9c-0.25,0.36-0.37,0.81-0.37,1.34v0.65c0,0.4,0.07,0.74,0.2,1.03
		c0.13,0.29,0.33,0.52,0.57,0.68c0.25,0.16,0.55,0.24,0.89,0.24c0.3,0,0.58-0.06,0.83-0.18C98.67,22.85,98.93,22.66,99.17,22.42
		L99.17,22.42z M99.08,18.94v1.86c0,0.34-0.06,0.6-0.17,0.76c-0.11,0.17-0.26,0.25-0.44,0.25c-0.12,0-0.21-0.03-0.27-0.09
		c-0.06-0.06-0.09-0.15-0.11-0.26c-0.02-0.11-0.02-0.24-0.02-0.4v-0.82c0-0.16,0.01-0.3,0.05-0.42c0.03-0.12,0.09-0.22,0.17-0.32
		c0.08-0.09,0.18-0.19,0.31-0.28C98.73,19.14,98.89,19.05,99.08,18.94L99.08,18.94z M104.46,20.25v-2.64c0-0.27,0.01-0.5,0.04-0.69
		c0.03-0.19,0.07-0.34,0.15-0.43c0.07-0.1,0.18-0.15,0.32-0.15c0.15,0,0.26,0.05,0.33,0.15c0.07,0.1,0.11,0.26,0.11,0.47v3.95
		c0,0.21-0.04,0.37-0.11,0.47c-0.07,0.1-0.18,0.15-0.33,0.15c-0.14,0-0.25-0.05-0.32-0.15c-0.07-0.1-0.12-0.24-0.15-0.43
		C104.47,20.75,104.46,20.52,104.46,20.25L104.46,20.25z M102.31,23h2.06v-0.91c0.19,0.34,0.43,0.61,0.72,0.79
		c0.29,0.18,0.61,0.27,0.95,0.28c0.52,0,0.91-0.17,1.17-0.5c0.26-0.33,0.38-0.83,0.38-1.5v-4.43c0-0.66-0.13-1.16-0.38-1.49
		c-0.26-0.33-0.65-0.5-1.17-0.5c-0.33,0-0.62,0.08-0.89,0.24c-0.27,0.16-0.5,0.39-0.69,0.7v-2.81h-2.15V23L102.31,23z M108.31,20.36
		v0.54c0,0.47,0.1,0.87,0.29,1.21c0.19,0.33,0.47,0.59,0.82,0.77c0.36,0.18,0.79,0.27,1.29,0.27c0.54,0,1.01-0.1,1.39-0.29
		c0.39-0.19,0.68-0.46,0.89-0.81c0.21-0.35,0.31-0.76,0.31-1.24c0-0.26-0.03-0.5-0.09-0.72c-0.06-0.22-0.15-0.42-0.27-0.61
		c-0.12-0.19-0.27-0.38-0.46-0.56c-0.18-0.18-0.4-0.37-0.64-0.57c-0.23-0.19-0.44-0.35-0.62-0.49c-0.18-0.14-0.34-0.28-0.48-0.4
		c-0.13-0.12-0.24-0.24-0.31-0.36c-0.07-0.12-0.11-0.24-0.11-0.37c0-0.16,0.05-0.29,0.14-0.38c0.09-0.1,0.2-0.15,0.34-0.15
		c0.16,0,0.28,0.06,0.35,0.18c0.07,0.12,0.11,0.3,0.1,0.54v0.35h1.95v-0.37c0-0.47-0.09-0.86-0.28-1.19
		c-0.18-0.33-0.45-0.58-0.79-0.75c-0.35-0.17-0.77-0.26-1.26-0.26c-0.51,0-0.96,0.1-1.33,0.29c-0.38,0.19-0.67,0.46-0.87,0.8
		c-0.21,0.34-0.31,0.76-0.31,1.23c0,0.34,0.06,0.64,0.16,0.9c0.1,0.26,0.25,0.49,0.44,0.7c0.19,0.21,0.41,0.42,0.65,0.63
		c0.25,0.2,0.52,0.42,0.82,0.66c0.17,0.14,0.31,0.26,0.44,0.37c0.12,0.11,0.21,0.22,0.27,0.33c0.06,0.11,0.1,0.23,0.1,0.37
		c0,0.2-0.05,0.35-0.14,0.46c-0.09,0.11-0.21,0.17-0.35,0.17c-0.16,0-0.28-0.07-0.36-0.2c-0.08-0.13-0.12-0.33-0.12-0.58v-0.47
		H108.31L108.31,20.36z"/>
</g>
</svg>
