<?xml version="1.0" encoding="UTF-8"?>
<!DOCTYPE svg PUBLIC "-//W3C//DTD SVG 1.1//EN" "http://www.w3.org/Graphics/SVG/1.1/DTD/svg11.dtd">
<!-- Creator: CorelDRAW 2021 (64-Bit) -->
<svg xmlns="http://www.w3.org/2000/svg" xml:space="preserve" width="200.117mm" height="32.3501mm" version="1.1" style="shape-rendering:geometricPrecision; text-rendering:geometricPrecision; image-rendering:optimizeQuality; fill-rule:evenodd; clip-rule:evenodd"
viewBox="0 0 20127.43 3253.72"
 xmlns:xlink="http://www.w3.org/1999/xlink"
 xmlns:xodm="http://www.corel.com/coreldraw/odm/2003">
 <defs>
  <style type="text/css">
   <![CDATA[
    .fil0 {fill:#1F165B}
   ]]>
  </style>
 </defs>
 <g id="Layer_x0020_1">
  <metadata id="CorelCorpID_0Corel-Layer"/>
  <g id="_2116433797872">
   <path class="fil0" d="M1189.36 1530.85c91.36,0 244.46,-164.19 244.46,-394.3 0,-307.12 -296.96,-579.31 -700.73,-579.31l-733.08 0 0 2229.8 951.63 0c446.78,0 742.57,-327.7 742.57,-680.37 0,-336.71 -266.88,-575.82 -504.84,-575.82zm-619.53 -459.28l0 0 145.21 0c127.19,0 221.33,63.83 221.33,171.59 0,114.71 -96.9,178.31 -225.48,178.31l-141.07 0 0 -349.89zm291.85 1179.18l0 0 -291.85 -0.01 0 -423.19 296 0c167.44,0 261.32,77.94 261.32,208.14 0,146.61 -129.97,212.99 -265.48,215.07z"/>
   <polygon class="fil0" points="1946.27,2786.58 2538.06,2786.58 2538.06,557.24 1946.27,557.24 "/>
   <polygon class="fil0" points="2847.95,557.24 2847.95,1110.19 3601.87,1110.19 2847.95,2785.66 4534.07,2785.65 4534.07,2230.62 3781.55,2230.62 4534.07,557.24 "/>
   <path class="fil0" d="M5907.53 1072.96c164.64,0 345.72,81.63 482.86,206.04l340.19 -437.07c-228.26,-207.44 -536.77,-333.26 -824.44,-337.41 -694.24,0 -1228.22,507.62 -1228.22,1167.4 0,699.78 587.87,1164.38 1216.5,1164.37l0.3 0c309.61,0 608,-117.19 834.94,-327.69l-336.48 -449.56c-143.85,128.59 -311.28,217.16 -497.9,217.16 -318.23,0 -617.02,-254.39 -617.02,-600.12 0,-341.8 286.31,-603.12 629.28,-603.12z"/>
   <polygon class="fil0" points="10723.02,1847.44 9527.89,536.2 9527.89,2786.58 10120.14,2786.58 10120.15,1902.71 10721.42,2749.35 10725.57,2749.35 11326.85,1902.71 11326.85,2786.58 11918.88,2786.58 11918.88,536.2 11917.94,536.2 "/>
   <path class="fil0" d="M13991.19 1338.44c0,-435.69 -383.2,-781.2 -842.48,-781.2l-842.23 0 0 2229.34 591.79 0 0 -656.78 250.44 0c467.38,0 842.48,-361.24 842.48,-791.36zm-842.46 246.29l0 0 -250.46 -1.39 0 -479.86 250.46 0c157.72,0 271.02,102.22 271.02,237.74 0,136.9 -111.92,244.9 -271.02,243.51z"/>
   <path class="fil0" d="M13663.03 2786.58l647.53 0.01 113.53 -259.94 832.55 0 111.93 259.93 648.68 0 -1177.12 -2257.09 -1177.11 2257.09zm1405.6 -762.23l0 0 -457.91 0 229.65 -528.42 228.26 528.42z"/>
   <path class="fil0" d="M17130.29 1439.96c-240.73,-101.06 -398.46,-134.13 -398.46,-236.58 0,-76.54 86.5,-138.75 208.14,-138.75 106.62,0 277.98,51.1 344.58,168.82l342.26 -329.32c-87.88,-219.93 -353.35,-380.19 -693.78,-380.19 -423.21,0 -789.75,275.19 -789.75,660.93 0,336.26 242.13,521.49 524.26,643.13 218.54,96.9 446.8,197.04 446.8,312.67 0,90.66 -123.04,136.91 -249.07,136.91 -186.62,0 -359.61,-83.02 -452.11,-219.92l-358.22 351.28c111.93,246.3 445.19,408.18 812.41,408.64 446.81,0 842.48,-264.33 842.48,-688.92 0,-329.08 -231.03,-542.07 -579.54,-688.69z"/>
   <path class="fil0" d="M18939.45 1439.96c-240.51,-101.06 -398.23,-134.13 -398.23,-236.58 0,-76.54 86.28,-138.75 208.14,-138.75 106.38,0 277.97,51.1 344.34,168.82l343.45 -329.32c-88.12,-219.93 -353.61,-380.19 -693.8,-380.19 -423.19,0 -789.74,275.19 -789.74,660.93 0,336.26 241.88,521.49 524.26,643.13 218.55,96.9 446.55,197.04 446.55,312.67 0,90.66 -123.02,136.91 -248.83,136.91 -186.86,0 -359.85,-83.02 -452.34,-219.92l-359.15 351.28c111.92,246.3 445.41,408.18 811.96,408.18 446.78,0 842.25,-264.33 842.25,-688.92 0,-329.08 -231.27,-542.07 -578.86,-688.23z"/>
   <path class="fil0" d="M8067 441.62c-668.73,0.02 -1211.06,542.36 -1211.06,1211.11 0,668.73 542.34,1211.08 1211.1,1211.08 668.74,0 1211.1,-542.35 1211.1,-1211.08 -0.59,-668.43 -542.66,-1210.52 -1211.14,-1211.11zm0.04 2195.33l0 0c-543.5,0 -984.25,-440.74 -984.25,-984.22 0,-543.49 440.74,-984.25 984.24,-984.25 543.5,0 984.25,440.75 984.25,984.25 0,543.47 -440.74,984.22 -984.24,984.22z"/>
   <polygon class="fil0" points="8344.3,1412.91 8402.82,1658.74 8609.09,1148.12 8098.48,1354.41 "/>
   <polygon class="fil0" points="7736.55,1716.54 7530.27,2227.16 8040.66,2020.88 7795.05,1962.37 "/>
   <path class="fil0" d="M8071.88 1464.01c-121.89,0 -221.3,99.42 -221.3,221.31 0,121.9 99.41,221.31 221.3,221.31 121.9,0 221.32,-99.41 221.32,-221.31 0,-121.89 -99.42,-221.31 -221.32,-221.31z"/>
   <polygon class="fil0" points="7295.77,3253.72 8838.04,3253.72 8838.04,3104.56 7295.77,3104.56 "/>
   <path class="fil0" d="M20027.29 100.14c-64.1,-64.12 -151.09,-100.14 -241.76,-100.14 -67.6,0 -133.71,20.06 -189.93,57.62 -56.23,37.56 -100.05,90.96 -125.92,153.43 -25.86,62.47 -32.63,131.21 -19.45,197.54 13.2,66.32 45.76,127.24 93.57,175.05 47.82,47.81 108.75,80.37 175.07,93.57 66.3,13.2 135.05,6.43 197.53,-19.46 62.47,-25.87 115.85,-69.7 153.42,-125.91 37.59,-56.22 57.62,-122.32 57.62,-189.95 0,-90.67 -36.02,-177.62 -100.14,-241.74zm-48.35 435.15l0 0c-51.27,51.28 -120.85,80.11 -193.41,80.11l0 -0.01c-54.09,0 -106.98,-16.04 -151.95,-46.08 -44.97,-30.05 -80.02,-72.77 -100.71,-122.76 -20.71,-49.97 -26.14,-104.96 -15.58,-158.02 10.55,-53.07 36.61,-101.8 74.86,-140.05 38.25,-38.25 86.98,-64.3 140.04,-74.84 53.07,-10.57 108.05,-5.15 158.04,15.56 49.95,20.69 92.67,55.75 122.73,100.73 30.05,44.99 46.1,97.85 46.1,151.94 0,72.55 -28.83,142.12 -80.1,193.41z"/>
   <path class="fil0" d="M19900.96 335.56c13.73,-17.79 21.21,-39.59 21.33,-62.06 0,-27.19 -10.82,-53.29 -30.05,-72.52 -19.21,-19.24 -45.3,-30.04 -72.53,-30.04l-170.93 0 0 341.89 68.37 0 0 -136.75 49.92 0 91.29 136.75 82.06 0 -94.02 -140.85c21.68,-5.85 40.84,-18.65 54.55,-36.42zm-81.25 -27.87l0 0 -102.56 0 0 -68.37 102.56 0c9.07,0 17.79,3.6 24.19,10.02 6.4,6.41 10.02,15.12 10.02,24.17 0,9.08 -3.62,17.77 -10.02,24.18 -6.4,6.41 -15.12,10.01 -24.19,10.01z"/>
  </g>
 </g>
</svg>
